HIERARCHY
ROOT Hips
{
	OFFSET -3.958830 18.904000 13.208200
	CHANNELS 6 Xposition Yposition Zposition Zrotation Yrotation Xrotation 
	JOINT LHipJoint
	{
		OFFSET 0.000000 0.000000 0.000000
		CHANNELS 3 Zrotation Yrotation Xrotation
		JOINT LeftUpLeg
		{
			OFFSET 1.800000 -1.400000 0.085000
			CHANNELS 3 Zrotation Yrotation Xrotation
			JOINT LeftLeg
			{
				OFFSET 2.215000 -6.000000 0.000000
				CHANNELS 3 Zrotation Yrotation Xrotation
				JOINT LeftFoot
				{
					OFFSET 2.500000 -6.900000 0.000000
					CHANNELS 3 Zrotation Yrotation Xrotation
					JOINT LeftToeBase
					{
						OFFSET 0.200000 -0.500000 1.950000
						CHANNELS 3 Zrotation Yrotation Xrotation
						End Site
						{
							OFFSET 0.000000 0.000000 0.000000
						}
					}
				}
			}
		}
	}
	JOINT RHipJoint
	{
		OFFSET 0.000000 0.000000 0.000000
		CHANNELS 3 Zrotation Yrotation Xrotation
		JOINT RightUpLeg
		{
			OFFSET -1.800000 -1.400000 0.085000
			CHANNELS 3 Zrotation Yrotation Xrotation
			JOINT RightLeg
			{
				OFFSET -2.215000 -6.000000 0.000000
				CHANNELS 3 Zrotation Yrotation Xrotation
				JOINT RightFoot
				{
					OFFSET -2.500000 -6.900000 0.000000
					CHANNELS 3 Zrotation Yrotation Xrotation
					JOINT RightToeBase
					{
						OFFSET -0.200000 -0.500000 1.950000
						CHANNELS 3 Zrotation Yrotation Xrotation
						End Site
						{
							OFFSET 0.000000 0.000000 0.000000
						}
					}
				}
			}
		}
	}
	JOINT LowerBack
	{
		OFFSET 0.000000 0.000000 0.000000
		CHANNELS 3 Zrotation Yrotation Xrotation
		JOINT Spine
		{
			OFFSET -0.087000 1.940000 -0.288900
			CHANNELS 3 Zrotation Yrotation Xrotation
			JOINT Spine1
			{
				OFFSET 0.000000 1.950000 0.060000
				CHANNELS 3 Zrotation Yrotation Xrotation
				JOINT Neck
				{
					OFFSET 0.000000 0.000000 0.000000
					CHANNELS 3 Zrotation Yrotation Xrotation
					JOINT Neck1
					{
						OFFSET 0.000000 1.600000 0.340000
						CHANNELS 3 Zrotation Yrotation Xrotation
						JOINT Head
						{
							OFFSET 0.000000 1.667000 -0.240000
							CHANNELS 3 Zrotation Yrotation Xrotation
							End Site
							{
								OFFSET 0.000000 0.000000 0.000000
							}
						}
					}
				}
				JOINT LeftShoulder
				{
					OFFSET 0.000000 0.000000 0.000000
					CHANNELS 3 Zrotation Yrotation Xrotation
					JOINT LeftArm
					{
						OFFSET 2.700000 1.550000 -0.730000
						CHANNELS 3 Zrotation Yrotation Xrotation
						JOINT LeftForeArm
						{
							OFFSET 5.450000 0.000000 0.000000
							CHANNELS 3 Zrotation Yrotation Xrotation
							JOINT LeftHand
							{
								OFFSET 3.450000 0.000000 0.000000
								CHANNELS 3 Zrotation Yrotation Xrotation
								JOINT LeftHandIndex1
								{
									OFFSET 0.750000 0.000000 0.000000
									CHANNELS 3 Zrotation Yrotation Xrotation
									End Site
									{
										OFFSET 0.000000 0.000000 0.000000
									}
								}
							}
						}
					}
				}
				JOINT RightShoulder
				{
					OFFSET 0.000000 0.000000 0.000000
					CHANNELS 3 Zrotation Yrotation Xrotation
					JOINT RightArm
					{
						OFFSET -2.700000 1.550000 -0.730000
						CHANNELS 3 Zrotation Yrotation Xrotation
						JOINT RightForeArm
						{
							OFFSET -5.450000 0.000000 0.000000
							CHANNELS 3 Zrotation Yrotation Xrotation
							JOINT RightHand
							{
								OFFSET -3.450000 0.000000 0.000000
								CHANNELS 3 Zrotation Yrotation Xrotation
								JOINT RightHandIndex1
								{
									OFFSET -0.750000 0.000000 0.000000
									CHANNELS 3 Zrotation Yrotation Xrotation
									End Site
									{
										OFFSET 0.000000 0.000000 0.000000
									}
								}
							}
						}
					}
				}
			}
		}
	}
}
MOTION
Frames: 9
Frame Time: 0.016667
-0.454780 16.970920 -2.166050 -9.519387 -22.333162 5.312895 -15.718059 10.488372 6.339720 28.599843 -0.470084 -39.085107 -34.155405 20.146916 26.949500 0.747310 10.624177 0.979662 0.456720 0.026840 0.209490 18.229775 -9.387494 2.055050 -4.484647 3.907265 -17.387775 12.954650 -7.227778 19.697550 -0.290362 -4.013222 3.252221 0.023410 0.438750 0.302950 -2.982784 -0.908626 -8.720796 1.157005 3.286885 16.443819 -3.385319 4.378149 3.947010 3.255824 0.697992 -9.056073 1.093738 4.707629 27.678372 4.640480 3.765760 -5.279160 -13.498928 4.944889 2.430684 -41.098292 17.713873 -12.813183 -68.404142 -37.838404 17.628031 -3.569239 3.575401 0.521610 0.251090 -0.140200 0.388560 7.213716 -3.070323 5.750348 34.488203 -16.337205 -10.162387 91.100947 39.658519 26.957986 1.801634 -2.257966 -0.197280 0.156300 -0.095250 -0.179480 
-0.457780 16.971740 -2.167840 -9.817288 -22.558322 5.652707 -15.725743 10.437497 6.381014 28.983519 -0.281881 -39.296139 -34.317270 20.155712 26.708733 0.749983 10.657725 0.968416 0.452980 0.015470 0.192210 18.237038 -9.363675 2.049261 -4.309409 3.934091 -17.429522 12.904705 -7.161209 19.501208 -0.276801 -3.999924 3.251977 0.021960 0.456650 0.320530 -2.999613 -0.877767 -8.725683 1.407643 3.257790 16.130195 -3.326056 4.349233 3.772289 3.244999 0.473299 -8.823796 0.745282 4.840587 27.491800 4.805270 3.501810 -4.688340 -13.588333 5.686208 2.193781 -42.226882 17.603300 -12.912347 -67.302256 -38.344336 17.667764 -3.586345 3.597720 0.505520 0.265140 -0.155750 0.392230 7.321233 -3.643271 5.593877 34.330831 -16.389929 -9.894407 92.161524 40.333022 28.272474 1.796343 -2.288652 -0.190950 0.143150 -0.083660 -0.170780 
-0.462300 16.969920 -2.168830 -10.030311 -22.789932 6.404398 -15.752912 10.365129 6.437504 29.327009 -0.157694 -39.951120 -34.489662 20.062141 26.295604 0.727318 10.673827 0.977338 0.462380 0.029670 0.154430 18.238806 -9.302671 2.014573 -4.291343 3.879603 -17.584181 12.816391 -6.969797 18.817781 -0.240708 -3.944613 3.281303 0.053590 0.510660 0.317790 -2.993535 -0.910586 -8.676304 1.335082 3.198443 15.100284 -2.701249 4.151916 3.731396 2.969846 -0.217929 -8.224088 -0.361625 5.269130 26.536242 5.326310 2.875660 -4.059700 -13.792436 7.228789 1.767461 -44.241098 17.571444 -13.083880 -66.069728 -39.325462 17.999004 -3.610860 3.616223 0.472810 0.293720 -0.198300 0.421310 8.120137 -4.696258 5.088548 33.371271 -16.476760 -9.284472 94.223865 41.679938 30.883818 1.775469 -2.337199 -0.203610 0.166990 -0.075350 -0.148400 
-0.473180 16.967950 -2.173010 -10.247290 -23.138141 7.270066 -15.796407 10.340079 6.473743 29.547846 0.010490 -40.549496 -34.414804 20.023612 26.055707 0.717954 10.707131 1.001763 0.446850 0.020350 0.097300 18.223578 -9.228139 1.981475 -3.990746 3.898864 -17.924405 12.398553 -6.741802 18.556938 -0.185339 -3.884751 3.328177 0.075900 0.597930 0.303460 -2.932603 -1.024435 -8.612799 0.909485 3.262331 14.169803 -1.491880 4.065726 3.207293 2.599167 -1.122449 -7.530732 -1.807333 5.817014 25.295949 5.778020 2.184910 -2.842240 -14.234045 9.281271 1.266786 -46.894697 17.895310 -13.378773 -64.650656 -40.794301 18.579585 -3.657275 3.612554 0.420090 0.340680 -0.262510 0.454970 9.373587 -5.961697 4.535745 31.218607 -17.101573 -8.343534 98.493020 43.169693 35.129180 1.760319 -2.391017 -0.229450 0.212050 -0.059570 -0.115520 
-0.491520 16.966290 -2.170510 -10.398054 -23.353249 8.060516 -15.832288 10.371911 6.436589 29.439321 0.089773 -40.730459 -33.974176 19.858372 25.846053 0.678569 10.682078 1.035440 0.439020 0.024700 0.040550 18.207428 -9.175730 1.951749 -3.431448 3.868557 -18.138959 11.739875 -6.469864 18.410422 -0.131114 -3.818878 3.375235 0.111540 0.683660 0.282370 -2.869275 -1.171962 -8.497107 0.346147 3.306149 12.975292 -0.081375 3.958141 2.878995 2.046447 -2.064870 -6.707617 -3.331910 6.503051 24.051379 6.395160 1.509300 -1.967050 -14.549752 11.600385 0.753731 -49.578629 18.325154 -13.721088 -63.175768 -42.050097 18.955681 -3.701941 3.601719 0.370480 0.384050 -0.328010 0.486680 10.864409 -7.489642 3.895137 28.920341 -18.140155 -7.498403 104.110354 45.061970 41.005392 1.737290 -2.444112 -0.259460 0.265280 -0.041580 -0.084300 
-0.495610 16.968900 -2.169010 -10.596584 -23.745087 8.328751 -15.830301 10.500284 6.309511 28.819008 0.065216 -40.340587 -32.758562 19.748258 26.392000 0.624249 10.636942 1.051654 0.445180 0.037900 0.003850 18.199859 -9.199809 1.955860 -2.679165 3.826371 -18.139304 10.728549 -6.159539 18.517275 -0.097609 -3.744432 3.405896 0.143500 0.736760 0.275310 -2.849052 -1.288922 -8.391756 0.289219 3.247882 12.460501 0.966598 3.942060 2.443418 1.465535 -3.062738 -5.876361 -5.006307 7.279812 23.492335 7.088260 0.917140 -1.683700 -15.237707 13.660349 0.347380 -51.915414 19.066941 -14.216526 -62.531044 -43.800593 19.811139 -3.726153 3.602081 0.345580 0.403680 -0.365690 0.506020 12.697019 -8.687186 3.140438 26.161360 -18.689717 -6.640588 110.713239 46.463317 47.898299 1.721008 -2.485568 -0.274680 0.300560 -0.023680 -0.061940 
-0.487200 16.970360 -2.170540 -10.570068 -23.885234 8.416033 -15.803296 10.688208 6.103137 27.446944 -0.304743 -40.275369 -30.227704 19.655197 28.306290 0.528934 10.585774 1.057251 0.462660 0.065900 -0.019580 18.200263 -9.267677 1.982526 -2.071741 3.757735 -18.278581 9.692298 -5.827748 18.514744 -0.064359 -3.656294 3.435971 0.191420 0.782470 0.265130 -2.858997 -1.397432 -8.253902 0.406541 3.080389 11.990969 1.754574 3.846352 2.256838 0.820941 -3.981293 -5.003870 -6.594412 7.962587 23.082837 7.600780 0.349950 -1.876160 -15.993204 15.225405 -0.042158 -53.745878 19.224812 -14.433925 -62.037772 -45.084279 20.409193 -3.760508 3.585427 0.328990 0.421860 -0.398290 0.519730 14.670229 -9.491499 2.263405 23.724861 -18.420499 -5.901160 117.283209 47.468820 55.241611 1.688221 -2.509418 -0.295480 0.347150 -0.003900 -0.048470 
-0.481860 16.972610 -2.175240 -10.412566 -23.916032 8.393452 -15.776709 10.903770 5.871889 25.846631 -0.696694 -40.438024 -26.768020 19.576208 31.253192 0.448451 10.563282 1.058634 0.488600 0.089370 -0.015250 18.197531 -9.353788 2.020853 -1.238646 3.690208 -18.487004 8.278609 -5.399976 18.560230 -0.037205 -3.533110 3.478079 0.226060 0.805680 0.259920 -2.852328 -1.495533 -8.118954 0.299267 3.007408 11.671696 2.531014 3.822132 2.170685 0.309674 -4.565952 -4.400496 -7.632235 8.400782 22.857476 7.724540 0.042870 -1.920560 -16.238044 16.479038 -0.216354 -55.606562 19.472282 -14.754131 -61.781318 -45.687642 20.672302 -3.772733 3.571674 0.324040 0.429880 -0.415770 0.535460 15.886301 -10.152375 1.575622 22.606119 -17.988802 -5.521970 123.367092 47.987257 62.254391 1.656638 -2.536582 -0.310030 0.374900 -0.004640 -0.045290 
-0.470590 16.974370 -2.175610 -10.238353 -23.676691 8.218236 -15.725168 11.187295 5.564130 23.656312 -1.204326 -40.664810 -21.716492 18.962538 35.148635 0.361371 10.428316 1.089732 0.489330 0.085810 -0.016030 18.200085 -9.495700 2.101062 -0.377159 3.610197 -18.666125 6.941995 -5.021206 18.610163 -0.013496 -3.420364 3.518462 0.228700 0.804730 0.252860 -2.866300 -1.559948 -7.997878 0.334157 2.952209 11.704657 3.206199 3.830984 1.990072 -0.044078 -4.902273 -4.170440 -8.253598 8.699449 22.987857 7.613910 -0.053500 -1.740660 -15.599823 17.496902 -0.125082 -57.758649 19.688850 -15.176428 -61.518352 -45.632090 20.570881 -3.764167 3.552231 0.328520 0.426030 -0.421210 0.536480 15.922891 -10.703508 1.081602 23.446254 -16.980801 -5.625666 127.448591 48.889290 68.250461 1.654484 -2.527620 -0.317970 0.376520 -0.005120 -0.047680 
